<svg width="44" height="44" viewBox="0 0 44 44" fill="none" xmlns="http://www.w3.org/2000/svg">
<path d="M39.7313 22.1003C34.6062 21.5811 30.2365 22.0152 26.5509 22.9823C25.8352 21.0082 25.0069 18.9849 24.0508 17.0166C27.7844 15.5962 31.6403 13.4739 35.2076 10.3294L35.209 10.3281C38.0197 13.4449 39.7313 17.5727 39.7313 22.1003Z" fill="#FF4893"/>
<path d="M26.5507 22.9824C30.2363 22.0153 34.606 21.5812 39.7311 22.1004C39.7311 28.8329 35.9493 34.6791 30.393 37.6324C30.393 37.6326 29.3392 30.6833 26.5507 22.9824ZM35.209 10.3282L35.2077 10.3295C31.6402 13.4738 27.7844 15.5961 24.0508 17.0167C21.9093 12.6017 19.1358 8.46416 15.6 5.7828L15.5986 5.7773C17.622 4.9655 19.8323 4.51758 22.1469 4.51758C27.331 4.51758 31.9904 6.76092 35.209 10.3282Z" fill="#FF4893"/>
<path d="M26.551 22.9824C29.3395 30.6833 30.3931 37.6327 30.3931 37.6327C27.9342 38.9417 25.1265 39.6835 22.1471 39.6835C17.3887 39.6835 13.0712 37.7933 9.90625 34.7232L9.90889 34.7205C9.90911 34.7205 14.6743 26.0939 26.551 22.9824Z" fill="#FF4893"/>
<path d="M24.0512 17.0166C25.0073 18.9852 25.8356 21.0085 26.5513 22.9823C14.6746 26.0938 9.90935 34.7204 9.90935 34.7204L9.90671 34.7231C6.61265 31.528 4.56445 27.0539 4.56445 22.1004C4.56445 21.2446 4.62495 20.4039 4.74441 19.5825C6.07805 19.7433 14.6787 20.5868 24.0512 17.0166Z" fill="#FF4893"/>
<path d="M15.6003 5.78284C19.1361 8.4642 21.9094 12.6017 24.0511 17.0167C14.6787 20.5869 6.078 19.7434 4.74414 19.5828C5.64526 13.2914 9.87894 8.07414 15.5989 5.77734L15.6003 5.78284Z" fill="#FF4893"/>
<path d="M22.147 40.6448C17.2995 40.6448 12.7145 38.7869 9.23674 35.413C5.60344 31.8888 3.60254 27.161 3.60254 22.1001C3.60254 21.2038 3.66634 20.3102 3.79262 19.4436C4.7263 12.9244 9.1131 7.34472 15.2405 4.88446C17.4386 4.0027 19.7622 3.55566 22.1472 3.55566C27.3885 3.55566 32.4098 5.78932 35.9234 9.68376C38.9968 13.0887 40.6966 17.5135 40.6932 22.1003C40.6932 28.9758 36.9196 35.2526 30.8447 38.4813C28.1864 39.8966 25.1788 40.6448 22.147 40.6448ZM22.147 5.4789C20.0084 5.4789 17.9256 5.87952 15.9566 6.66954C10.4646 8.87482 6.53272 13.875 5.69584 19.7188C5.58195 20.5076 5.52504 21.3036 5.52556 22.1006C5.52556 26.6365 7.319 30.8739 10.5757 34.0329C13.6928 37.0566 17.8022 38.722 22.147 38.722C24.8644 38.722 27.5597 38.0519 29.9412 36.7838C35.3873 33.8893 38.7698 28.263 38.7698 22.1006C38.7729 17.9896 37.2496 14.0239 34.4952 10.9721C31.3459 7.48112 26.8451 5.4789 22.147 5.4789Z" fill="#4F46A3"/>
<path d="M4.69084 18.6063L4.86552 18.6289C5.81196 18.7429 14.4406 19.6484 23.7081 16.1181C27.7682 14.5734 31.4233 12.3833 34.5717 9.60827C34.7634 9.44248 35.0128 9.35908 35.2657 9.37623C35.5186 9.39337 35.7545 9.50967 35.9221 9.69982C36.0897 9.88997 36.1754 10.1386 36.1607 10.3916C36.1459 10.6447 36.0318 10.8816 35.8433 11.051C32.5208 13.9792 28.6684 16.2888 24.3923 17.9155C18.234 20.2613 12.4386 20.7502 8.67966 20.7502C6.64158 20.7502 5.203 20.6067 4.62858 20.5374L4.43652 20.5126M9.9077 35.6816C9.7449 35.6816 9.58496 35.64 9.44262 35.5608C9.21982 35.4375 9.0551 35.2307 8.98464 34.986C8.91418 34.7413 8.94376 34.4787 9.06686 34.2557C9.11834 34.1622 10.3613 31.9394 13.1131 29.3218C15.6365 26.9214 19.9738 23.7116 26.3072 22.0526C30.4634 20.9618 35.0126 20.656 39.8281 21.1442C40.0818 21.1699 40.3149 21.2954 40.4761 21.493C40.6373 21.6905 40.7134 21.9441 40.6877 22.1978C40.662 22.4515 40.5365 22.6845 40.3389 22.8457C40.1413 23.0069 39.8878 23.083 39.6341 23.0573C35.0484 22.5927 30.7283 22.8804 26.7947 23.9127C20.8925 25.4588 16.8491 28.4354 14.4965 30.6601C11.9359 33.0814 10.7611 35.1661 10.7496 35.1868C10.6662 35.3369 10.5441 35.4619 10.3961 35.5489C10.248 35.6359 10.0794 35.6817 9.9077 35.6816Z" fill="#4F46A3"/>
<path d="M30.3922 38.5937C30.1624 38.5934 29.9403 38.5108 29.7661 38.3608C29.5919 38.2109 29.4772 38.0036 29.4427 37.7764C29.4323 37.7078 28.3684 30.824 25.647 23.3094C24.8821 21.1992 24.054 19.2229 23.1861 17.4361C20.796 12.5083 18.0482 8.84529 15.0192 6.54827C14.9186 6.47196 14.834 6.37657 14.7702 6.26756C14.7065 6.15854 14.6648 6.03804 14.6476 5.91292C14.6304 5.7878 14.6381 5.66052 14.6701 5.53835C14.702 5.41618 14.7578 5.30151 14.8341 5.20088C14.9104 5.10026 15.0058 5.01565 15.1148 4.95188C15.2238 4.88812 15.3443 4.84645 15.4695 4.82926C15.5946 4.81207 15.7219 4.81969 15.844 4.85169C15.9662 4.88369 16.0809 4.93944 16.1815 5.01575C19.454 7.49757 22.3928 11.3938 24.9162 16.5961C25.8129 18.4424 26.6674 20.4807 27.4552 22.654C30.2441 30.3558 31.3003 37.2002 31.3441 37.4878C31.365 37.6248 31.3559 37.7647 31.3176 37.8979C31.2794 38.0311 31.2127 38.1544 31.1223 38.2595C31.0319 38.3645 30.9198 38.4488 30.7938 38.5065C30.6678 38.5641 30.5308 38.5939 30.3922 38.5937Z" fill="#4F46A3"/>
</svg>
