<svg width="36" height="36" viewBox="0 0 36 36" fill="none" xmlns="http://www.w3.org/2000/svg">
<g clip-path="url(#clip0_117_10477)">
<path d="M17.925 0.0751953C27.825 0.0751953 35.85 8.10019 35.85 18.0002C35.925 27.9752 27.825 36.0002 17.925 36.0002C8.025 36.0002 0 27.9752 0 18.0752C0 8.17519 8.025 0.0751953 17.925 0.0751953Z" fill="#0094FF"/>
<path d="M27.825 11.3998H21.975V12.8248H27.825V11.3998ZM24.975 16.2748C24.3 16.2748 23.7 16.4998 23.325 16.8748C22.875 17.2498 22.65 17.8498 22.65 18.5248H27.3C27.075 16.9498 26.325 16.2748 24.975 16.2748ZM25.125 22.9498C25.575 22.9498 26.1 22.7998 26.55 22.5748C27 22.3498 27.3 21.9748 27.45 21.5998H30C29.25 23.9248 27.6 25.1248 25.125 25.1248C23.475 25.1248 22.2 24.5998 21.225 23.6248C20.25 22.6498 19.8 21.2998 19.8 19.6498C19.8 18.0748 20.325 16.7248 21.3 15.6748C22.275 14.6248 23.55 14.0998 25.125 14.0998C26.175 14.0998 27.075 14.3248 27.9 14.8498C28.65 15.3748 29.25 16.0498 29.625 16.8748C30 17.6998 30.225 18.6748 30.225 19.7248V20.2498H22.725C22.725 21.0748 22.95 21.7498 23.4 22.1998C23.7 22.6498 24.3 22.9498 25.125 22.9498ZM9.9 22.3498H13.275C14.85 22.3498 15.6 21.7498 15.6 20.4748C15.6 19.1248 14.85 18.4498 13.35 18.4498H9.9V22.3498ZM9.9 16.1998H13.125C13.725 16.1998 14.175 16.0498 14.55 15.7498C14.925 15.4498 15.075 15.0748 15.075 14.4748C15.075 13.3498 14.325 12.8248 12.9 12.8248H9.9V16.1998ZM6.75 10.4248H13.5C14.175 10.4248 14.775 10.4998 15.3 10.5748C15.825 10.6498 16.275 10.8748 16.725 11.0998C17.175 11.3248 17.475 11.6998 17.775 12.2248C18 12.6748 18.15 13.2748 18.15 13.9498C18.15 15.2998 17.475 16.3498 16.2 16.9498C17.1 17.1748 17.7 17.6248 18.15 18.2248C18.6 18.8248 18.825 19.6498 18.825 20.5498C18.825 21.1498 18.75 21.6748 18.525 22.1248C18.375 22.5748 18.075 22.9498 17.775 23.3248C17.475 23.6248 17.1 23.9248 16.65 24.1498C16.2 24.3748 15.75 24.5248 15.3 24.5998C14.85 24.6748 14.325 24.7498 13.8 24.7498H6.75V10.4248Z" fill="white"/>
</g>
<defs>
<clipPath id="clip0_117_10477">
<rect width="36" height="36" fill="white"/>
</clipPath>
</defs>
</svg>
