<svg width="40" height="40" viewBox="0 0 40 40" fill="none" xmlns="http://www.w3.org/2000/svg">
<mask id="mask0_0_2243" style="mask-type:alpha" maskUnits="userSpaceOnUse" x="0" y="0" width="40" height="40">
<circle cx="20" cy="20" r="20" fill="#393B41"/>
</mask>
<g mask="url(#mask0_0_2243)">
<path d="M19.9992 27.8154C24.0898 27.8154 27.4055 24.4998 27.4055 20.4092C27.4055 16.3186 24.0898 13.0029 19.9992 13.0029C15.9086 13.0029 12.593 16.3186 12.593 20.4092C12.593 24.4998 15.9086 27.8154 19.9992 27.8154ZM19.9992 31.2717C13.1805 31.2717 7.65234 33.4498 7.65234 36.1342C7.65234 38.8186 13.1805 40.9998 19.9992 40.9998C26.818 40.9998 32.3461 38.8217 32.3461 36.1373C32.3461 33.4529 26.818 31.2717 19.9992 31.2717Z" fill="#9C9FA8"/>
</g>
</svg>
