<svg width="40" height="40" viewBox="0 0 40 40" fill="none" xmlns="http://www.w3.org/2000/svg">
<rect width="40" height="40" rx="4" fill="#292D31"/>
<path d="M28.3332 20.0003C28.3332 19.5401 27.9601 19.167 27.4998 19.167C27.0396 19.167 26.6665 19.5401 26.6665 20.0003H28.3332ZM19.9998 13.3337C20.4601 13.3337 20.8332 12.9606 20.8332 12.5003C20.8332 12.0401 20.4601 11.667 19.9998 11.667V13.3337ZM26.2498 26.667H13.7498V28.3337H26.2498V26.667ZM13.3332 26.2503V13.7503H11.6665V26.2503H13.3332ZM26.6665 20.0003V26.2503H28.3332V20.0003H26.6665ZM13.7498 13.3337H19.9998V11.667H13.7498V13.3337ZM13.7498 26.667C13.5197 26.667 13.3332 26.4805 13.3332 26.2503H11.6665C11.6665 27.4009 12.5992 28.3337 13.7498 28.3337V26.667ZM26.2498 28.3337C27.4004 28.3337 28.3332 27.4009 28.3332 26.2503H26.6665C26.6665 26.4805 26.48 26.667 26.2498 26.667V28.3337ZM13.3332 13.7503C13.3332 13.5202 13.5197 13.3337 13.7498 13.3337V11.667C12.5992 11.667 11.6665 12.5997 11.6665 13.7503H13.3332Z" fill="white"/>
<path d="M12.5 24.5835L16.9555 20.4993C17.2662 20.2144 17.7408 20.2065 18.0609 20.4809L23.3333 25.0002" stroke="white" stroke-width="2" stroke-linecap="round" stroke-linejoin="round"/>
<path d="M21.6665 22.9166L23.6555 20.9277C23.9487 20.6344 24.4129 20.6014 24.7447 20.8503L27.4998 22.9166" stroke="white" stroke-width="2" stroke-linecap="round" stroke-linejoin="round"/>
<path d="M25.4165 17.5V12.5" stroke="white" stroke-width="2" stroke-linecap="round" stroke-linejoin="round"/>
<path d="M23.3335 14.5833L25.4168 12.5L27.5002 14.5833" stroke="white" stroke-width="2" stroke-linecap="round" stroke-linejoin="round"/>
</svg>
