<svg width="200" height="26" viewBox="0 0 200 26" fill="none" xmlns="http://www.w3.org/2000/svg">
<path d="M15.1398 8.07031C14.9211 8.07031 14.7024 8.07999 14.4837 8.10901C13.9607 8.16707 13.4473 8.30253 12.9814 8.49604C12.9814 8.49604 16.8989 12.434 17.0035 12.5888V8.38961C16.8894 8.3509 16.7658 8.3122 16.6516 8.28318C16.1572 8.14772 15.6533 8.07031 15.1398 8.07031ZM19.2285 9.78289C19.0668 9.61841 18.9052 9.47327 18.734 9.33781C18.3156 8.99917 17.8687 8.73793 17.4028 8.53474C17.4028 8.53474 17.4313 14.1369 17.4028 14.3207L20.3219 11.3503C20.2649 11.2342 20.2078 11.1278 20.1413 11.0214C19.9036 10.5763 19.5993 10.1602 19.2285 9.78289ZM20.5121 11.8148C20.5121 11.8148 16.6421 15.8011 16.49 15.9075H20.6262C20.6642 15.7914 20.7023 15.6656 20.7308 15.5495C20.8639 15.0658 20.9305 14.553 20.9305 14.0208C20.9305 13.7983 20.921 13.5757 20.8925 13.3532C20.8354 12.8017 20.7023 12.2889 20.5121 11.8148ZM14.769 16.3429L17.6881 19.3133C17.8022 19.2553 17.9068 19.1972 18.0114 19.1295C18.4393 18.8779 18.8481 18.5683 19.2094 18.191C19.3616 18.0362 19.5137 17.862 19.6468 17.6878C19.9796 17.2621 20.2364 16.8074 20.436 16.3333C20.4456 16.3429 14.9401 16.372 14.769 16.3429ZM13.2666 15.4141V19.6133C13.3807 19.652 13.5043 19.6907 13.6184 19.7197C14.0939 19.8552 14.5978 19.9229 15.1208 19.9229C15.3395 19.9229 15.5582 19.9132 15.7769 19.8842C16.2998 19.8262 16.8133 19.6907 17.2792 19.4972C17.2887 19.4972 13.3712 15.5592 13.2666 15.4141ZM12.8482 13.6531L9.92912 16.6235C9.98617 16.7396 10.0432 16.8461 10.1098 16.9525C10.357 17.3879 10.6613 17.804 11.0321 18.1716C11.1842 18.3361 11.3554 18.4812 11.5265 18.6167C11.9449 18.9553 12.3918 19.2166 12.8673 19.4198C12.8577 19.4391 12.8292 13.837 12.8482 13.6531ZM9.52976 12.463C9.40615 12.9468 9.33008 13.4596 9.33008 13.9918C9.33008 14.2143 9.33959 14.4368 9.36811 14.6594C9.42516 15.1915 9.55828 15.714 9.74845 16.1881C9.74845 16.1881 13.6184 12.2018 13.7706 12.0954H9.63435C9.59632 12.2211 9.55828 12.3469 9.52976 12.463ZM12.2207 8.88306C11.7928 9.13463 11.3839 9.44425 11.0226 9.82159C10.861 9.98608 10.7183 10.1506 10.5852 10.3247C10.2524 10.7505 9.99568 11.2052 9.78649 11.689C9.78649 11.689 15.2919 11.66 15.4726 11.689L12.5535 8.7089C12.4299 8.76695 12.3253 8.82501 12.2207 8.88306Z" fill="white"/>
<path fill-rule="evenodd" clip-rule="evenodd" d="M0 5.80061C0 4.12928 1.35487 2.77441 3.02619 2.77441H27.2358C28.9071 2.77441 30.2619 4.12929 30.2619 5.80061V11.3486H22.1705C21.064 8.54293 18.3288 6.55762 15.1299 6.55762C11.9311 6.55762 9.19591 8.54293 8.08938 11.3486H0V5.80061ZM0 16.8967V22.4447C0 24.116 1.35487 25.4709 3.02619 25.4709H27.2358C28.9071 25.4709 30.2619 24.116 30.2619 22.4447V16.8967H22.1709C21.0646 19.7028 18.3292 21.6886 15.1299 21.6886C11.9307 21.6886 9.19531 19.7028 8.08902 16.8967H0Z" fill="white"/>
<path d="M4.53906 2.26999C4.53906 1.99144 4.76487 1.76562 5.04343 1.76562H6.05216C6.33071 1.76562 6.55653 1.99144 6.55653 2.26999V2.77436H4.53906V2.26999Z" fill="white"/>
<path d="M22.4434 1.76511C22.4434 1.48655 22.6692 1.26074 22.9477 1.26074H24.9652C25.2437 1.26074 25.4696 1.48655 25.4696 1.76511V2.77384H22.4434V1.76511Z" fill="white"/>
<path d="M10.9739 0.332003C11.0464 0.132683 11.2359 0 11.4479 0H18.8112C19.0233 0 19.2128 0.132682 19.2852 0.332002L20.1733 2.77401H10.0859L10.9739 0.332003Z" fill="white"/>
<path d="M154.621 1.00879H149.621V25.1571H154.621V1.00879Z" fill="white"/>
<path d="M138.521 10.3779H133.521V25.1872H138.521V10.3779Z" fill="white"/>
<path d="M145.952 1.00879H126.082V6.00839H145.952V1.00879Z" fill="white"/>
<path d="M111.524 1.00879L108.805 7.03516L116.989 25.1816H122.416L111.524 1.00879Z" fill="white"/>
<path d="M106.089 13.0625H111.523L106.058 25.1458H100.625L106.089 13.0625Z" fill="white"/>
<path d="M169.179 25.1815L166.465 19.1551L174.643 1.00879H180.076L169.179 25.1815Z" fill="white"/>
<path d="M163.745 13.1353H169.179L163.715 1.0459H158.287L163.745 13.1353Z" fill="white"/>
<path d="M96.9482 10.5859H87.9941V15.5855H96.9482V10.5859Z" fill="white"/>
<path d="M96.9482 20.1885H87.9941V25.1881H96.9482V20.1885Z" fill="white"/>
<path d="M96.957 1.00879H80.6992V6.00839H96.957V1.00879Z" fill="white"/>
<path d="M88.0027 10.5859C86.103 10.6409 84.2995 11.4342 82.9753 12.7973C81.651 14.1605 80.9102 15.9861 80.9102 17.8866C80.9102 19.7871 81.651 21.6128 82.9753 22.9759C84.2995 24.3391 86.103 25.1324 88.0027 25.1874V20.1878C87.4129 20.1574 86.8573 19.9017 86.4506 19.4735C86.0439 19.0453 85.8171 18.4772 85.8171 17.8866C85.8171 17.296 86.0439 16.7281 86.4506 16.2998C86.8573 15.8716 87.4129 15.6159 88.0027 15.5855V10.5859Z" fill="white"/>
<path d="M199.991 10.5859H191.037V15.5855H199.991V10.5859Z" fill="white"/>
<path d="M199.991 20.1885H191.037V25.1881H199.991V20.1885Z" fill="white"/>
<path d="M200 1.00879H183.742V6.00839H200V1.00879Z" fill="white"/>
<path d="M191.046 10.5859C189.146 10.6409 187.342 11.4342 186.018 12.7973C184.694 14.1605 183.953 15.9861 183.953 17.8866C183.953 19.7871 184.694 21.6128 186.018 22.9759C187.342 24.3391 189.146 25.1324 191.046 25.1874V20.1878C190.456 20.1574 189.9 19.9017 189.494 19.4735C189.087 19.0453 188.86 18.4772 188.86 17.8866C188.86 17.296 189.087 16.7281 189.494 16.2998C189.9 15.8716 190.456 15.6159 191.046 15.5855V10.5859Z" fill="white"/>
<path d="M69.7287 10.6416H68.0723V15.6411H69.7287V10.6416Z" fill="white"/>
<path d="M69.7275 1.03906H60.7734V6.03867H69.7275V1.03906Z" fill="white"/>
<path d="M65.773 17.9395H60.7734V25.2188H65.773V17.9395Z" fill="white"/>
<path d="M77.0342 8.34312C77.0342 6.40322 76.2657 4.54232 74.8968 3.16774C73.528 1.79316 71.6704 1.01687 69.7305 1.00879V6.00832C70.3416 6.00832 70.9277 6.25111 71.3598 6.68323C71.7919 7.11535 72.0346 7.70142 72.0346 8.31253L77.0342 8.34312Z" fill="white"/>
<path d="M65.7735 17.9451C65.7735 17.3356 66.0156 16.7511 66.4466 16.3201C66.8776 15.8891 67.4621 15.647 68.0716 15.647V10.6475C66.137 10.6539 64.2833 11.4244 62.9142 12.7912C61.5451 14.158 60.7714 16.0105 60.7617 17.9451H65.7735Z" fill="white"/>
<path d="M77.0328 17.9395H72.0332V25.2188H77.0328V17.9395Z" fill="white"/>
<path d="M77.0342 17.9451C77.0246 16.0115 76.2518 14.16 74.884 12.7934C73.5162 11.4267 71.664 10.6555 69.7305 10.6475V15.647C70.0328 15.6462 70.3322 15.705 70.6117 15.8202C70.8913 15.9353 71.1454 16.1045 71.3594 16.3179C71.5734 16.5314 71.7433 16.785 71.8591 17.0643C71.975 17.3435 72.0346 17.6428 72.0346 17.9451H77.0342Z" fill="white"/>
<path d="M57.0939 18.7762C56.0906 20.6699 54.6023 22.2632 52.7813 23.3932C50.9603 24.5232 48.872 25.1493 46.7297 25.2076C44.5874 25.2659 42.468 24.7542 40.5882 23.7249C38.7085 22.6956 37.1358 21.1856 36.031 19.3493C34.9262 17.5129 34.3287 15.4161 34.2999 13.2732C34.2711 11.1303 34.8119 9.01815 35.8669 7.15274C36.922 5.28734 38.4535 3.73556 40.3049 2.65608C42.1562 1.57659 44.261 1.00815 46.4041 1.00879V6.0022C45.1045 6.00144 43.8295 6.35706 42.7178 7.03031C41.6061 7.70356 40.7003 8.66872 40.0988 9.82082C39.4973 10.9729 39.2232 12.2678 39.3063 13.5648C39.3894 14.8618 39.8265 16.1112 40.57 17.1772C41.3136 18.2431 42.3352 19.0848 43.5237 19.6107C44.7122 20.1366 46.0221 20.3265 47.3111 20.1599C48.6 19.9934 49.8187 19.4766 50.8344 18.6658C51.8502 17.855 52.6242 16.7813 53.0723 15.5613L57.0939 18.7762Z" fill="white"/>
</svg>
